<svg
  width="49"
  height="43"
  viewBox="0 0 49 43"
  fill="none"
  xmlns="http://www.w3.org/2000/svg"
>
  <g clip-path="url(#clip0_187_67)">
    <path
      d="M15.3125 4.86719H33.6875C36.3147 4.86986 38.8226 5.78728 40.6631 7.40234C42.3867 8.91493 43.3898 10.9192 43.5107 13.0176L43.5234 13.4385V29.5625C43.5204 31.812 42.5014 33.9844 40.6631 35.5977C38.8226 37.2127 36.3147 38.1301 33.6875 38.1328H15.3125C12.6853 38.1301 10.1774 37.2127 8.33691 35.5977C6.61327 34.0851 5.61024 32.0808 5.48926 29.9824L5.47656 29.5615V13.4385C5.47941 11.1887 6.49843 9.01571 8.33691 7.40234C10.0625 5.88804 12.3749 4.98669 14.8223 4.87793L15.3125 4.86719ZM15.3125 5.88281C13.0674 5.88281 10.9027 6.66487 9.29785 8.07324C7.69099 9.48344 6.77344 11.4113 6.77344 13.4375V29.5625C6.77344 31.5887 7.69099 33.5166 9.29785 34.9268C10.9027 36.3351 13.0674 37.1172 15.3125 37.1172H33.6875C35.9326 37.1172 38.0973 36.3351 39.7021 34.9268C41.309 33.5166 42.2266 31.5887 42.2266 29.5625V13.4375C42.2266 11.4113 41.309 9.48344 39.7021 8.07324C38.0973 6.66487 35.9326 5.88281 33.6875 5.88281H15.3125ZM24.499 14.2734C26.7203 14.276 28.8392 15.0519 30.3926 16.415C31.8469 17.6913 32.6917 19.3803 32.7939 21.1465L32.8047 21.501C32.8045 22.9142 32.327 24.3027 31.4229 25.4902C30.5177 26.6789 29.2236 27.6145 27.6982 28.1689C26.1728 28.7234 24.491 28.8692 22.8682 28.5859C21.2452 28.3026 19.7618 27.6043 18.6035 26.5879C17.446 25.572 16.6674 24.2854 16.3525 22.8965C16.038 21.5086 16.198 20.0693 16.8174 18.7568C17.4375 17.443 18.4934 16.3089 19.8613 15.5068C21.2293 14.7047 22.8434 14.2736 24.499 14.2734ZM27.1611 15.7539C25.8888 15.2914 24.4918 15.1711 23.1445 15.4062C21.7972 15.6414 20.5516 16.2231 19.5684 17.0859C18.5845 17.9493 17.9059 19.0578 17.6299 20.2754C17.3537 21.4938 17.4959 22.7558 18.0352 23.8984C18.574 25.0399 19.4816 26.0053 20.6318 26.6797C21.7816 27.3538 23.1275 27.7109 24.5 27.7109C26.339 27.7109 28.1139 27.0704 29.4316 25.9141C30.7514 24.7559 31.5078 23.1699 31.5078 21.5C31.5078 20.2559 31.0868 19.0464 30.3086 18.0244C29.5312 17.0035 28.4336 16.2164 27.1611 15.7539ZM34.4531 11.5859C34.8477 11.5859 35.2149 11.7245 35.4766 11.9541C35.7361 12.1819 35.8672 12.4754 35.8672 12.7656C35.8672 12.9832 35.7937 13.2022 35.6465 13.3955C35.4985 13.5899 35.2811 13.7508 35.0146 13.8477C34.7483 13.9444 34.4522 13.9708 34.166 13.9209C33.8797 13.8709 33.6243 13.7479 33.4297 13.5771C33.2358 13.407 33.1124 13.1984 33.0635 12.9824C33.0148 12.7675 33.0388 12.5435 33.1367 12.3359C33.2353 12.1271 33.408 11.9384 33.6426 11.8008C33.8777 11.6629 34.16 11.5859 34.4531 11.5859Z"
      fill="#EBD5F3"
      stroke="#EBD5F3"
    />
  </g>
  <defs>
    <clipPath id="clip0_187_67">
      <rect width="49" height="43" fill="white" />
    </clipPath>
  </defs>
</svg>
