<svg
  width="51"
  height="45"
  viewBox="0 0 51 45"
  fill="none"
  xmlns="http://www.w3.org/2000/svg"
>
  <g clip-path="url(#clip0_187_75)">
    <path
      d="M43.3819 7.9502C44.5931 7.9502 45.5069 8.8877 45.0181 10.6314L39.0894 35.2877C38.675 37.0408 37.4744 37.4627 35.8169 36.6471L21.675 27.4314C21.6202 27.3967 21.5755 27.351 21.5447 27.298C21.5138 27.245 21.4978 27.1863 21.4978 27.1268C21.4978 27.0672 21.5138 27.0085 21.5447 26.9555C21.5755 26.9025 21.6202 26.8568 21.675 26.8221L38.0056 13.8096C38.7494 13.2283 37.8463 12.9471 36.8688 13.4721L16.3731 24.8814C16.311 24.9172 16.2404 24.94 16.1668 24.9481C16.0931 24.9563 16.0184 24.9495 15.9481 24.9283L7.24625 22.5002C5.3125 22.0033 5.3125 20.8314 7.68188 19.9971L42.5 8.14707C42.7765 8.03112 43.0761 7.96423 43.3819 7.9502Z"
      stroke="#EBD5F3"
      stroke-width="2"
      stroke-linecap="round"
      stroke-linejoin="round"
    />
  </g>
  <defs>
    <clipPath id="clip0_187_75">
      <rect width="51" height="45" fill="white" />
    </clipPath>
  </defs>
</svg>
